# xmcd CD database file
#
# Track frame offsets:
#	150
#	22995
#	41495
#	63790
#	83615
#	103760
#	120995
#	137817
#	156032
#	177102
#	194055
#	212940
#	233987
#	261580
#
# Disc length: 3761 seconds
#
# Revision: 0
# Processed by: cddbd v1.4PL0 Copyright (c) Steve Scherf et al.
# Submitted via: CDex 1.50beta10
#
DISCID=bf0eaf0e
DTITLE=Various Artist - RMM Mega Mezcla
DYEAR=1900
DGENRE=Salsa
TTITLE0=Me Canse de ser la ortra
TTITLE1=Si tu supieras
TTITLE2=Mujer de arena
TTITLE3=No vay a dejarte ir
TTITLE4=La laella
TTITLE5=Te amo
TTITLE6=A sangre fria
TTITLE7=Parece mentira
TTITLE8=Mi confidente
TTITLE9=Como un nino celoso
TTITLE10=Para Quererte
TTITLE11=Cuando el amor se va
TTITLE12=Reggae loco mix
TTITLE13=Radio mix
EXTD=
EXTT0=
EXTT1=
EXTT2=
EXTT3=
EXTT4=
EXTT5=
EXTT6=
EXTT7=
EXTT8=
EXTT9=
EXTT10=
EXTT11=
EXTT12=
EXTT13=
PLAYORDER=
